<?xml version="1.0" encoding="UTF-8" standalone="no"?>
<svg xmlns:rdf="http://www.w3.org/1999/02/22-rdf-syntax-ns#" style="enable-background:new 0 0 48 48;" xmlns="http://www.w3.org/2000/svg" xmlns:osb="http://www.openswatchbook.org/uri/2009/osb" xml:space="preserve" height="48px" viewBox="0 0 48 48" width="48px" version="1.1" xmlns:cc="http://creativecommons.org/ns#" xmlns:dc="http://purl.org/dc/elements/1.1/"><metadata><rdf:RDF><cc:Work rdf:about=""><dc:format>image/svg+xml</dc:format><dc:type rdf:resource="http://purl.org/dc/dcmitype/StillImage"/><dc:title/></cc:Work></rdf:RDF></metadata><defs/><circle stroke="#231F20" cy="26.5" cx="33" stroke-miterlimit="10" r="12.4" fill="#FFF"/><g transform="matrix(0.02325248,0,0,0.02325248,14.433062,19.407938)"><path fill="#d80000" d="M770,627c-15-16-51-49-82-72-90-67-102-77-138-111-67-62-96-124-96-208,0.0477-41.2,2.85-57,14.4-81.3,19.6-41.2,48.4-71.7,85.2-90.4,26.1-13.2,38.9-19.1,82.5-19.4,45.6-0.252,55.1,5.06,81.9,19.8,32.6,17.9,66.2,56.2,73.1,83.4l4.29,16.8,10.6-23.1c59.7-131,250-129,317,3.25,21.1,41.9,23.4,131,4.7,182-24.4,65.7-70.1,116-176,193-69.3,50.4-148,127-153,137-6.34,12.4-0.303,1.95-28.3-29.4z"/></g><circle cx="10.4" stroke="#231f20" transform="matrix(1,0,0,-1,0,63.214001)" cy="31.6" stroke-miterlimit="10" r="7" fill="#FFF"/><circle stroke="#231F20" cy="31.7" cx="10.2" stroke-miterlimit="10" r="0.875" fill="none"/><circle stroke="#231F20" cy="26.9" cx="32.9" stroke-miterlimit="10" r="0.875" fill="none"/><line y2="10.5" y1="26.5" stroke="#231F20" stroke-miterlimit="10" x2="33" x1="33" fill="none"/><path d="M32.7,12.2s-21.7-0.438-22.6,17.7" stroke="#231F20" stroke-miterlimit="10" fill="none"/><path d="M33.2,8.42s5.09,0.219,1.69,3.62" stroke="#231F20" stroke-miterlimit="10" fill="none"/><line y2="7.92" y1="11.3" stroke="#231F20" stroke-miterlimit="10" x2="33" x1="33" fill="none"/><line y2="31.5" y1="29.6" stroke="#231F20" stroke-miterlimit="10" x2="10.2" x1="10.2" fill="none"/><line y2="11.2" y1="12.8" stroke="#231F20" stroke-miterlimit="10" x2="25.7" x1="25.7" fill="none"/><path fill="#231F20" d="M27.4,10.6c0,0.354-0.287,0.641-0.641,0.641h-3.03c-0.354,0-0.641-0.286-0.641-0.641,0-0.354,0.287-0.641,0.641-0.641h3.03c0.3-0.01,0.6,0.24,0.6,0.64z"/><path fill="#231F20" d="M23.2,23.5l0.883-0.025c0.627-3.07,3.12-5.48,6.28-5.96l-0.027-0.91c-3.7,0.5-6.6,3.3-7.2,6.9z"/><path fill="#231F20" d="M5.1,30.1l0.48-0.016c0.341-1.67,1.7-2.98,3.42-3.25l-0.016-0.495c-1.97,0.4-3.53,1.9-3.88,3.8z"/><path d="M26.4,12.9s-7.06,2.49-7.4,6.95" stroke="#231F20" stroke-miterlimit="10" fill="none"/></svg>
